<svg xmlns="http://www.w3.org/2000/svg" width="900" height="290" style="font-family: -apple-system, BlinkMacSystemFont, 'Segoe UI', Helvetica, Arial, sans-serif;">
  <rect width="100%" height="100%" fill="#0d1117"/>
  <g>
    <line x1="40" y1="220.00" x2="860" y2="220.00" stroke="#30363d"/><text x="32" y="224.00" font-size="10" fill="#c9d1d9" text-anchor="end">0</text><line x1="40" y1="175.00" x2="860" y2="175.00" stroke="#30363d"/><text x="32" y="179.00" font-size="10" fill="#c9d1d9" text-anchor="end">500</text><line x1="40" y1="130.00" x2="860" y2="130.00" stroke="#30363d"/><text x="32" y="134.00" font-size="10" fill="#c9d1d9" text-anchor="end">1k</text><line x1="40" y1="85.00" x2="860" y2="85.00" stroke="#30363d"/><text x="32" y="89.00" font-size="10" fill="#c9d1d9" text-anchor="end">1.5k</text><line x1="40" y1="40.00" x2="860" y2="40.00" stroke="#30363d"/><text x="32" y="44.00" font-size="10" fill="#c9d1d9" text-anchor="end">2k</text>
    <line x1="40.00" y1="40" x2="40.00" y2="220" stroke="#30363d" opacity="0.5"/><line x1="122.00" y1="40" x2="122.00" y2="220" stroke="#30363d" opacity="0.5"/><line x1="204.00" y1="40" x2="204.00" y2="220" stroke="#30363d" opacity="0.5"/><line x1="286.00" y1="40" x2="286.00" y2="220" stroke="#30363d" opacity="0.5"/><line x1="368.00" y1="40" x2="368.00" y2="220" stroke="#30363d" opacity="0.5"/><line x1="450.00" y1="40" x2="450.00" y2="220" stroke="#30363d" opacity="0.5"/><line x1="532.00" y1="40" x2="532.00" y2="220" stroke="#30363d" opacity="0.5"/><line x1="614.00" y1="40" x2="614.00" y2="220" stroke="#30363d" opacity="0.5"/><line x1="696.00" y1="40" x2="696.00" y2="220" stroke="#30363d" opacity="0.5"/><line x1="778.00" y1="40" x2="778.00" y2="220" stroke="#30363d" opacity="0.5"/><line x1="860.00" y1="40" x2="860.00" y2="220" stroke="#30363d" opacity="0.5"/>
    <line x1="40" y1="220" x2="860" y2="220" stroke="#30363d"/>
    <line x1="40" y1="40"   x2="40"   y2="220" stroke="#30363d"/>
    <path d="M 40.00 150.52 L 56.40 147.91 L 72.80 146.47 L 89.20 144.22 L 105.60 141.97 L 122.00 140.71 L 138.40 139.81 L 154.80 138.73 L 171.20 138.10 L 187.60 135.67 L 204.00 133.87 L 220.40 133.60 L 236.80 126.04 L 253.20 126.04 L 269.60 126.04 L 286.00 138.46 L 302.40 123.61 L 318.80 123.61 L 335.20 123.61 L 351.60 123.61 L 368.00 123.43 L 384.40 122.80 L 400.80 122.98 L 417.20 123.16 L 433.60 123.16 L 450.00 123.16 L 466.40 123.16 L 482.80 118.66 L 499.20 118.66 L 515.60 118.66 L 532.00 117.76 L 548.40 117.76 L 564.80 119.20 L 581.20 118.93 L 597.60 118.93 L 614.00 118.84 L 630.40 118.66 L 646.80 118.48 L 663.20 119.83 L 679.60 119.83 L 696.00 119.20 L 712.40 118.48 L 728.80 118.21 L 745.20 118.21 L 761.60 115.60 L 778.00 121.09 L 794.40 121.09 L 810.80 121.09 L 827.20 121.09 L 843.60 121.09 L 860.00 121.09" fill="none" stroke="#3fb950" stroke-width="2"/>
    <circle cx="860.00" cy="121.09" r="3" fill="#3fb950"/>
    <text x="40.00" y="235.00" font-size="9" fill="#c9d1d9" text-anchor="middle" transform="rotate(-45 40.00 235.00)">09.07.2026</text><text x="122.00" y="235.00" font-size="9" fill="#c9d1d9" text-anchor="middle" transform="rotate(-45 122.00 235.00)">09.07.2026</text><text x="204.00" y="235.00" font-size="9" fill="#c9d1d9" text-anchor="middle" transform="rotate(-45 204.00 235.00)">10.07.2026</text><text x="286.00" y="235.00" font-size="9" fill="#c9d1d9" text-anchor="middle" transform="rotate(-45 286.00 235.00)">10.07.2026</text><text x="368.00" y="235.00" font-size="9" fill="#c9d1d9" text-anchor="middle" transform="rotate(-45 368.00 235.00)">10.07.2026</text><text x="450.00" y="235.00" font-size="9" fill="#c9d1d9" text-anchor="middle" transform="rotate(-45 450.00 235.00)">10.07.2026</text><text x="532.00" y="235.00" font-size="9" fill="#c9d1d9" text-anchor="middle" transform="rotate(-45 532.00 235.00)">10.07.2026</text><text x="614.00" y="235.00" font-size="9" fill="#c9d1d9" text-anchor="middle" transform="rotate(-45 614.00 235.00)">10.07.2026</text><text x="696.00" y="235.00" font-size="9" fill="#c9d1d9" text-anchor="middle" transform="rotate(-45 696.00 235.00)">10.07.2026</text><text x="778.00" y="235.00" font-size="9" fill="#c9d1d9" text-anchor="middle" transform="rotate(-45 778.00 235.00)">10.07.2026</text><text x="860.00" y="235.00" font-size="9" fill="#c9d1d9" text-anchor="middle" transform="rotate(-45 860.00 235.00)">07.08.2026</text>
  </g>
</svg>