<svg xmlns="http://www.w3.org/2000/svg" width="900" height="290" style="font-family: -apple-system, BlinkMacSystemFont, 'Segoe UI', Helvetica, Arial, sans-serif;">
  <rect width="100%" height="100%" fill="#0d1117"/>
  <g>
    <line x1="40" y1="220.00" x2="860" y2="220.00" stroke="#30363d"/><text x="32" y="224.00" font-size="10" fill="#c9d1d9" text-anchor="end">0</text><line x1="40" y1="175.00" x2="860" y2="175.00" stroke="#30363d"/><text x="32" y="179.00" font-size="10" fill="#c9d1d9" text-anchor="end">500</text><line x1="40" y1="130.00" x2="860" y2="130.00" stroke="#30363d"/><text x="32" y="134.00" font-size="10" fill="#c9d1d9" text-anchor="end">1k</text><line x1="40" y1="85.00" x2="860" y2="85.00" stroke="#30363d"/><text x="32" y="89.00" font-size="10" fill="#c9d1d9" text-anchor="end">1.5k</text><line x1="40" y1="40.00" x2="860" y2="40.00" stroke="#30363d"/><text x="32" y="44.00" font-size="10" fill="#c9d1d9" text-anchor="end">2k</text>
    <line x1="40.00" y1="40" x2="40.00" y2="220" stroke="#30363d" opacity="0.5"/><line x1="105.60" y1="40" x2="105.60" y2="220" stroke="#30363d" opacity="0.5"/><line x1="171.20" y1="40" x2="171.20" y2="220" stroke="#30363d" opacity="0.5"/><line x1="236.80" y1="40" x2="236.80" y2="220" stroke="#30363d" opacity="0.5"/><line x1="302.40" y1="40" x2="302.40" y2="220" stroke="#30363d" opacity="0.5"/><line x1="368.00" y1="40" x2="368.00" y2="220" stroke="#30363d" opacity="0.5"/><line x1="433.60" y1="40" x2="433.60" y2="220" stroke="#30363d" opacity="0.5"/><line x1="499.20" y1="40" x2="499.20" y2="220" stroke="#30363d" opacity="0.5"/><line x1="564.80" y1="40" x2="564.80" y2="220" stroke="#30363d" opacity="0.5"/><line x1="630.40" y1="40" x2="630.40" y2="220" stroke="#30363d" opacity="0.5"/><line x1="696.00" y1="40" x2="696.00" y2="220" stroke="#30363d" opacity="0.5"/><line x1="761.60" y1="40" x2="761.60" y2="220" stroke="#30363d" opacity="0.5"/><line x1="827.20" y1="40" x2="827.20" y2="220" stroke="#30363d" opacity="0.5"/>
    <line x1="40" y1="220" x2="860" y2="220" stroke="#30363d"/>
    <line x1="40" y1="40"   x2="40"   y2="220" stroke="#30363d"/>
    <path d="M 40.00 150.52 L 72.80 147.91 L 105.60 146.47 L 138.40 144.22 L 171.20 141.97 L 204.00 140.71 L 236.80 139.81 L 269.60 138.73 L 302.40 138.10 L 335.20 135.67 L 368.00 133.87 L 400.80 133.60 L 433.60 126.04 L 466.40 126.04 L 499.20 126.04 L 532.00 138.46 L 564.80 123.61 L 597.60 123.61 L 630.40 123.61 L 663.20 123.61 L 696.00 123.43 L 728.80 122.80 L 761.60 122.98 L 794.40 123.16 L 827.20 123.16 L 860.00 123.16" fill="none" stroke="#3fb950" stroke-width="2"/>
    <circle cx="860.00" cy="123.16" r="3" fill="#3fb950"/>
    <text x="40.00" y="235.00" font-size="9" fill="#c9d1d9" text-anchor="middle" transform="rotate(-45 40.00 235.00)">22:45</text><text x="105.60" y="235.00" font-size="9" fill="#c9d1d9" text-anchor="middle" transform="rotate(-45 105.60 235.00)">23:55</text><text x="171.20" y="235.00" font-size="9" fill="#c9d1d9" text-anchor="middle" transform="rotate(-45 171.20 235.00)">23:58</text><text x="236.80" y="235.00" font-size="9" fill="#c9d1d9" text-anchor="middle" transform="rotate(-45 236.80 235.00)">00:00</text><text x="302.40" y="235.00" font-size="9" fill="#c9d1d9" text-anchor="middle" transform="rotate(-45 302.40 235.00)">00:02</text><text x="368.00" y="235.00" font-size="9" fill="#c9d1d9" text-anchor="middle" transform="rotate(-45 368.00 235.00)">00:35</text><text x="433.60" y="235.00" font-size="9" fill="#c9d1d9" text-anchor="middle" transform="rotate(-45 433.60 235.00)">00:58</text><text x="499.20" y="235.00" font-size="9" fill="#c9d1d9" text-anchor="middle" transform="rotate(-45 499.20 235.00)">01:19</text><text x="564.80" y="235.00" font-size="9" fill="#c9d1d9" text-anchor="middle" transform="rotate(-45 564.80 235.00)">03:32</text><text x="630.40" y="235.00" font-size="9" fill="#c9d1d9" text-anchor="middle" transform="rotate(-45 630.40 235.00)">03:59</text><text x="696.00" y="235.00" font-size="9" fill="#c9d1d9" text-anchor="middle" transform="rotate(-45 696.00 235.00)">04:00</text><text x="761.60" y="235.00" font-size="9" fill="#c9d1d9" text-anchor="middle" transform="rotate(-45 761.60 235.00)">04:01</text><text x="827.20" y="235.00" font-size="9" fill="#c9d1d9" text-anchor="middle" transform="rotate(-45 827.20 235.00)">04:02</text>
  </g>
</svg>