<svg xmlns="http://www.w3.org/2000/svg" width="900" height="290" style="font-family: -apple-system, BlinkMacSystemFont, 'Segoe UI', Helvetica, Arial, sans-serif;">
  <rect width="100%" height="100%" fill="#0d1117"/>
  <g>
    <line x1="40" y1="220.00" x2="860" y2="220.00" stroke="#30363d"/><text x="32" y="224.00" font-size="10" fill="#c9d1d9" text-anchor="end">0</text><line x1="40" y1="175.00" x2="860" y2="175.00" stroke="#30363d"/><text x="32" y="179.00" font-size="10" fill="#c9d1d9" text-anchor="end">500</text><line x1="40" y1="130.00" x2="860" y2="130.00" stroke="#30363d"/><text x="32" y="134.00" font-size="10" fill="#c9d1d9" text-anchor="end">1k</text><line x1="40" y1="85.00" x2="860" y2="85.00" stroke="#30363d"/><text x="32" y="89.00" font-size="10" fill="#c9d1d9" text-anchor="end">1.5k</text><line x1="40" y1="40.00" x2="860" y2="40.00" stroke="#30363d"/><text x="32" y="44.00" font-size="10" fill="#c9d1d9" text-anchor="end">2k</text>
    <line x1="40.00" y1="40" x2="40.00" y2="220" stroke="#30363d" opacity="0.5"/><line x1="112.89" y1="40" x2="112.89" y2="220" stroke="#30363d" opacity="0.5"/><line x1="185.78" y1="40" x2="185.78" y2="220" stroke="#30363d" opacity="0.5"/><line x1="258.67" y1="40" x2="258.67" y2="220" stroke="#30363d" opacity="0.5"/><line x1="331.56" y1="40" x2="331.56" y2="220" stroke="#30363d" opacity="0.5"/><line x1="404.44" y1="40" x2="404.44" y2="220" stroke="#30363d" opacity="0.5"/><line x1="477.33" y1="40" x2="477.33" y2="220" stroke="#30363d" opacity="0.5"/><line x1="550.22" y1="40" x2="550.22" y2="220" stroke="#30363d" opacity="0.5"/><line x1="623.11" y1="40" x2="623.11" y2="220" stroke="#30363d" opacity="0.5"/><line x1="696.00" y1="40" x2="696.00" y2="220" stroke="#30363d" opacity="0.5"/><line x1="768.89" y1="40" x2="768.89" y2="220" stroke="#30363d" opacity="0.5"/><line x1="841.78" y1="40" x2="841.78" y2="220" stroke="#30363d" opacity="0.5"/>
    <line x1="40" y1="220" x2="860" y2="220" stroke="#30363d"/>
    <line x1="40" y1="40"   x2="40"   y2="220" stroke="#30363d"/>
    <path d="M 40.00 150.52 L 58.22 147.91 L 76.44 146.47 L 94.67 144.22 L 112.89 141.97 L 131.11 140.71 L 149.33 139.81 L 167.56 138.73 L 185.78 138.10 L 204.00 135.67 L 222.22 133.87 L 240.44 133.60 L 258.67 126.04 L 276.89 126.04 L 295.11 126.04 L 313.33 138.46 L 331.56 123.61 L 349.78 123.61 L 368.00 123.61 L 386.22 123.61 L 404.44 123.43 L 422.67 122.80 L 440.89 122.98 L 459.11 123.16 L 477.33 123.16 L 495.56 123.16 L 513.78 123.16 L 532.00 118.66 L 550.22 118.66 L 568.44 118.66 L 586.67 117.76 L 604.89 117.76 L 623.11 119.20 L 641.33 118.93 L 659.56 118.93 L 677.78 118.84 L 696.00 118.66 L 714.22 118.48 L 732.44 119.83 L 750.67 119.83 L 768.89 119.20 L 787.11 118.48 L 805.33 118.21 L 823.56 118.21 L 841.78 115.60 L 860.00 121.09" fill="none" stroke="#3fb950" stroke-width="2"/>
    <circle cx="860.00" cy="121.09" r="3" fill="#3fb950"/>
    <text x="40.00" y="235.00" font-size="9" fill="#c9d1d9" text-anchor="middle" transform="rotate(-45 40.00 235.00)">22:45</text><text x="112.89" y="235.00" font-size="9" fill="#c9d1d9" text-anchor="middle" transform="rotate(-45 112.89 235.00)">23:58</text><text x="185.78" y="235.00" font-size="9" fill="#c9d1d9" text-anchor="middle" transform="rotate(-45 185.78 235.00)">00:02</text><text x="258.67" y="235.00" font-size="9" fill="#c9d1d9" text-anchor="middle" transform="rotate(-45 258.67 235.00)">00:58</text><text x="331.56" y="235.00" font-size="9" fill="#c9d1d9" text-anchor="middle" transform="rotate(-45 331.56 235.00)">03:32</text><text x="404.44" y="235.00" font-size="9" fill="#c9d1d9" text-anchor="middle" transform="rotate(-45 404.44 235.00)">04:00</text><text x="477.33" y="235.00" font-size="9" fill="#c9d1d9" text-anchor="middle" transform="rotate(-45 477.33 235.00)">04:02</text><text x="550.22" y="235.00" font-size="9" fill="#c9d1d9" text-anchor="middle" transform="rotate(-45 550.22 235.00)">04:16</text><text x="623.11" y="235.00" font-size="9" fill="#c9d1d9" text-anchor="middle" transform="rotate(-45 623.11 235.00)">13:15</text><text x="696.00" y="235.00" font-size="9" fill="#c9d1d9" text-anchor="middle" transform="rotate(-45 696.00 235.00)">13:18</text><text x="768.89" y="235.00" font-size="9" fill="#c9d1d9" text-anchor="middle" transform="rotate(-45 768.89 235.00)">16:01</text><text x="841.78" y="235.00" font-size="9" fill="#c9d1d9" text-anchor="middle" transform="rotate(-45 841.78 235.00)">18:47</text>
  </g>
</svg>